<svg width="328" height="328" viewBox="0 0 328 328" fill="none" xmlns="http://www.w3.org/2000/svg">
<path d="M164 328C73.5589 328 0 254.407 0 164C0 73.5932 73.5934 0 164 0C254.407 0 328 73.5932 328 164C328 254.407 254.407 328 164 328ZM164 10.9218C79.5884 10.9218 10.9218 79.5881 10.9218 164C10.9218 248.412 79.5884 317.078 164 317.078C248.412 317.078 317.078 248.412 317.078 164C317.078 79.5881 248.412 10.9218 164 10.9218Z" fill="#478BF9"/>
<path d="M270.985 46.9988L220.214 97.7703L230.203 107.759L280.974 56.9875L270.985 46.9988Z" fill="#478BF9"/>
<path d="M96.2343 221.745L45.4629 272.516L55.4515 282.505L106.223 231.734L96.2343 221.745Z" fill="#478BF9"/>
<path d="M231.742 221.794L221.753 231.783L272.524 282.555L282.513 272.566L231.742 221.794Z" fill="#478BF9"/>
<path d="M55.4388 45.4699L45.4502 55.4585L96.1973 106.206L106.186 96.2171L55.4388 45.4699Z" fill="#478BF9"/>
<path d="M204 168.41C207.307 165.103 207.307 159.762 204 156.489L196.971 149.495C193.663 146.188 188.323 146.188 185.05 149.495L181.26 153.285L176.884 148.909C173.577 145.602 168.236 145.602 164.963 148.909L161.174 152.734L156.798 148.324C153.49 145.016 148.15 145.016 144.877 148.324L121.62 171.58C121.448 171.752 121.448 172.028 121.62 172.234C124.721 175.335 129.786 175.335 132.921 172.234L147.909 157.247C149.528 155.628 152.147 155.628 153.766 157.247L154.868 158.35C155.075 158.556 155.075 158.866 154.868 159.073L142.362 171.58C142.189 171.752 142.189 172.028 142.362 172.234C145.462 175.335 150.527 175.335 153.663 172.234L168.03 157.867C169.649 156.248 172.268 156.248 173.887 157.867L174.99 158.97C175.162 159.142 175.162 159.418 174.99 159.625L162.931 171.683C162.758 171.856 162.758 172.131 162.931 172.338C166.032 175.439 171.096 175.439 174.231 172.338L188.116 158.453C189.736 156.834 192.354 156.834 193.973 158.453L196.351 160.83C197.281 161.761 197.281 163.311 196.351 164.241L195.972 164.62C195.041 165.55 193.491 165.55 192.561 164.62L189.494 161.554C189.322 161.382 189.047 161.382 188.84 161.554L183.534 166.86C183.362 167.032 183.362 167.308 183.534 167.514L188.323 172.303C191.631 175.611 196.971 175.611 200.244 172.303L204.034 168.513L204 168.41Z" fill="#478BF9"/>
<path d="M164.003 38.2437C94.5445 38.2437 38.2471 94.5411 38.2471 164C38.2471 233.459 94.5445 289.756 164.003 289.756C233.462 289.756 289.76 233.459 289.76 164C289.76 94.5411 233.462 38.2437 164.003 38.2437ZM169.137 77.0731C189.327 78.2446 207.656 86.3066 221.851 98.9167L203.694 117.074C194.219 109.046 182.264 103.844 169.137 102.741V77.0731ZM158.904 77.0731V102.741C145.777 103.809 133.822 109.046 124.347 117.074L106.19 98.9167C120.385 86.3066 138.714 78.2446 158.904 77.0731ZM98.9546 106.152L117.112 124.309C109.084 133.784 103.881 145.739 102.779 158.866H77.1108C78.2822 138.676 86.3445 120.347 98.9546 106.152ZM77.1108 169.099H102.779C103.847 182.226 109.084 194.181 117.112 203.656L98.9546 221.813C86.3445 207.619 78.2822 189.289 77.1108 169.099ZM158.904 250.892C138.714 249.721 120.385 241.659 106.19 229.049L124.347 210.891C133.822 218.919 145.777 224.122 158.904 225.224V250.892ZM111.151 163.965C111.151 134.783 134.821 111.113 164.003 111.113C193.186 111.113 216.855 134.783 216.855 163.965C216.855 193.148 193.186 216.818 164.003 216.818C134.821 216.818 111.151 193.148 111.151 163.965ZM169.137 250.892V225.224C182.264 224.156 194.219 218.919 203.694 210.891L221.851 229.049C207.656 241.659 189.327 249.721 169.137 250.892ZM229.086 221.813L210.929 203.656C218.957 194.181 224.16 182.226 225.262 169.099H250.93C249.759 189.289 241.696 207.619 229.086 221.813ZM225.262 158.866C224.194 145.739 218.957 133.784 210.929 124.309L229.086 106.152C241.696 120.347 249.759 138.676 250.93 158.866H225.262Z" fill="#478BF9"/>
<path d="M98.9546 106.152L117.112 124.309C109.084 133.784 103.881 145.739 102.779 158.866H77.1108C78.2822 138.676 86.3445 120.347 98.9546 106.152Z" fill="#478BF9"/>
<path d="M158.904 77.0731V102.741C145.777 103.809 133.822 109.046 124.347 117.074L106.19 98.9167C120.385 86.3066 138.714 78.2446 158.904 77.0731Z" fill="#478BF9"/>
<path d="M111.151 163.965C111.151 134.783 134.821 111.113 164.003 111.113C193.186 111.113 216.855 134.783 216.855 163.965C216.855 193.148 193.186 216.818 164.003 216.818C134.821 216.818 111.151 193.148 111.151 163.965Z" fill="#478BF9"/>
<path d="M77.1108 169.099H102.779C103.847 182.226 109.084 194.181 117.112 203.656L98.9546 221.813C86.3445 207.619 78.2822 189.289 77.1108 169.099Z" fill="#478BF9"/>
<path d="M158.904 250.892C138.714 249.721 120.385 241.659 106.19 229.049L124.347 210.891C133.822 218.919 145.777 224.122 158.904 225.224V250.892Z" fill="#478BF9"/>
<path d="M169.137 250.892V225.224C182.264 224.156 194.219 218.919 203.694 210.891L221.851 229.049C207.656 241.659 189.327 249.721 169.137 250.892Z" fill="#478BF9"/>
<path d="M229.086 221.813L210.929 203.656C218.957 194.181 224.16 182.226 225.262 169.099H250.93C249.759 189.289 241.696 207.619 229.086 221.813Z" fill="#478BF9"/>
<path d="M225.262 158.866C224.194 145.739 218.957 133.784 210.929 124.309L229.086 106.152C241.696 120.347 249.759 138.676 250.93 158.866H225.262Z" fill="#478BF9"/>
<path d="M169.137 77.0731C189.327 78.2446 207.656 86.3066 221.851 98.9167L203.694 117.074C194.219 109.046 182.264 103.844 169.137 102.741V77.0731Z" fill="#478BF9"/>
<circle cx="164" cy="164" r="107" fill="#1E1231"/>
<path d="M205.841 203.97L125.367 204.503C121.977 204.526 119.247 207.291 119.27 210.679L119.289 213.546C119.311 216.934 122.077 219.662 125.467 219.64L205.942 219.107C209.332 219.084 212.061 216.319 212.039 212.931L212.02 210.064C211.997 206.676 209.231 203.947 205.841 203.97Z" fill="#478BF9"/>
<path d="M136.329 155.419C135.456 155.419 134.569 155.225 133.765 154.837L127.489 151.804C124.759 150.475 123.512 147.248 124.648 144.437L127.53 137.263C128.417 135.075 130.509 133.648 132.865 133.635C133.876 133.635 134.874 133.884 135.761 134.396L143.243 138.662C144.642 139.451 145.654 140.822 146.014 142.401C146.374 143.98 146.056 145.642 145.141 146.971L141.04 152.912C139.973 154.463 138.199 155.405 136.315 155.405L136.329 155.419Z" fill="#478BF9"/>
<path d="M194.26 155.031C192.376 155.031 190.589 154.131 189.508 152.594L185.448 146.874C184.506 145.559 184.173 143.897 184.506 142.318C184.838 140.739 185.836 139.354 187.236 138.537L194.953 134.009C195.826 133.496 196.824 133.219 197.835 133.205C200.191 133.191 202.311 134.59 203.225 136.764L206.135 143.731C207.299 146.528 206.094 149.783 203.392 151.14L196.824 154.422C196.034 154.81 195.147 155.031 194.274 155.031H194.26Z" fill="#478BF9"/>
<path d="M130.01 199.127C126.477 199.154 123.304 196.938 122.098 193.615L108.672 156.679C107.813 157.095 106.898 157.413 105.97 157.649C104.875 157.926 103.767 158.064 102.644 158.064C101.993 158.064 101.356 158.037 100.732 157.953C93.7349 157.067 88.4282 151.07 88.3866 144.007C88.3312 136.197 94.6494 129.798 102.464 129.743C110.279 129.688 116.681 136.003 116.722 143.814C116.722 145.614 116.417 147.345 115.78 148.965C115.433 149.852 115.004 150.697 114.505 151.5L140.042 163.853L159.579 135.56C158.761 135.213 157.972 134.784 157.223 134.272C155.81 133.316 154.577 132.125 153.579 130.726C151.889 128.344 150.974 125.533 150.96 122.625C150.905 114.814 157.223 108.416 165.038 108.36C165.385 108.36 165.745 108.36 166.091 108.388C173.089 108.859 178.742 114.468 179.255 121.461C179.49 124.771 178.617 127.943 176.733 130.643C175.735 132.056 174.516 133.261 173.116 134.216C172.382 134.729 171.592 135.158 170.775 135.504L190.658 163.507L215.779 150.946C215.308 150.046 214.934 149.104 214.657 148.121C214.324 146.93 214.144 145.683 214.144 144.423C214.144 143.855 214.172 143.287 214.227 142.733C215.031 135.615 221.044 130.214 228.208 130.172C236.023 130.117 242.424 136.432 242.466 144.243C242.521 151.694 236.729 157.953 229.289 158.466L228.402 158.494C226.961 158.494 225.548 158.3 224.176 157.884C223.289 157.607 222.43 157.261 221.626 156.818L209.017 193.033C207.867 196.371 204.708 198.614 201.175 198.642L130.01 199.113V199.127Z" fill="#478BF9"/>
<path d="M138.509 188.382L138.534 188.445H138.603H149.806H149.906V188.345V185.23V185.13H149.806H142.854L145.657 182L145.657 182C146.164 181.427 146.613 180.88 147.002 180.359C147.409 179.838 147.756 179.342 148.045 178.871L148.046 178.869C148.335 178.381 148.565 177.918 148.735 177.48C148.923 177.026 149.059 176.596 149.145 176.192L149.145 176.191C149.231 175.77 149.274 175.365 149.274 174.977C149.274 173.94 149.034 173.03 148.551 172.251C148.087 171.474 147.45 170.865 146.642 170.424C145.833 169.983 144.914 169.763 143.888 169.763C142.896 169.763 141.971 169.965 141.114 170.37L141.114 170.37L141.113 170.37C140.274 170.775 139.538 171.355 138.905 172.109L138.905 172.109C138.289 172.847 137.827 173.725 137.52 174.74L137.498 174.814L137.564 174.855L140.043 176.36L140.148 176.424L140.189 176.308C140.422 175.64 140.713 175.07 141.06 174.595C141.426 174.101 141.813 173.73 142.221 173.478L142.221 173.478L142.222 173.478C142.646 173.21 143.075 173.078 143.509 173.078C144.02 173.078 144.441 173.171 144.777 173.352C145.114 173.533 145.369 173.787 145.545 174.115L145.545 174.115L145.547 174.119C145.739 174.447 145.837 174.836 145.837 175.288C145.837 175.635 145.748 176.019 145.567 176.442C145.384 176.851 145.143 177.278 144.842 177.724L144.842 177.725C144.557 178.155 144.255 178.577 143.936 178.99C143.618 179.386 143.308 179.738 143.007 180.047L143.007 180.046L143.003 180.051L137.693 186.151L137.653 186.197L137.675 186.253L138.509 188.382ZM158.692 188.345V188.445H158.792H161.953H162.053V188.345V183.928H164.963H165.063V183.828V180.895V180.795H164.963H162.053V170.123V170.023H161.953H159.374H159.326L159.296 170.06L150.495 181.066L150.455 181.117L150.484 181.174L151.849 183.874L151.877 183.928H151.938H158.692V188.345ZM158.692 175.618V180.795H154.567L158.692 175.618ZM166.232 191.806L166.163 191.949H166.323H169.408H169.471L169.498 191.893L179.918 170.218L179.986 170.075H179.827H176.793H176.73L176.703 170.131L166.232 191.806ZM182.88 188.305L182.818 188.445H182.971H186.385H186.452L186.477 188.384L193.407 172.057L193.419 172.028L193.413 171.998L193.034 170.103L193.017 170.023H192.935H181.783H181.683V170.123V173.16V173.26H181.783H189.515L182.88 188.305Z" fill="#1E1231" stroke="#1E1231" stroke-width="0.2"/>
</svg>
