<svg width="328" height="328" viewBox="0 0 328 328" fill="none" xmlns="http://www.w3.org/2000/svg">
<path d="M164 328C73.5589 328 0 254.407 0 164C0 73.5932 73.5934 0 164 0C254.407 0 328 73.5932 328 164C328 254.407 254.407 328 164 328ZM164 10.9218C79.5884 10.9218 10.9218 79.5881 10.9218 164C10.9218 248.412 79.5884 317.078 164 317.078C248.412 317.078 317.078 248.412 317.078 164C317.078 79.5881 248.412 10.9218 164 10.9218Z" fill="#478BF9"/>
<path d="M270.985 46.9988L220.214 97.7703L230.203 107.759L280.974 56.9875L270.985 46.9988Z" fill="#478BF9"/>
<path d="M96.2343 221.745L45.4629 272.516L55.4515 282.505L106.223 231.734L96.2343 221.745Z" fill="#478BF9"/>
<path d="M231.742 221.794L221.753 231.783L272.524 282.555L282.513 272.566L231.742 221.794Z" fill="#478BF9"/>
<path d="M55.4388 45.4699L45.4502 55.4585L96.1973 106.206L106.186 96.2171L55.4388 45.4699Z" fill="#478BF9"/>
<path d="M204 168.41C207.307 165.103 207.307 159.762 204 156.489L196.971 149.495C193.663 146.188 188.323 146.188 185.05 149.495L181.26 153.285L176.884 148.909C173.577 145.602 168.236 145.602 164.963 148.909L161.174 152.734L156.798 148.324C153.49 145.016 148.15 145.016 144.877 148.324L121.62 171.58C121.448 171.752 121.448 172.028 121.62 172.234C124.721 175.335 129.786 175.335 132.921 172.234L147.909 157.247C149.528 155.628 152.147 155.628 153.766 157.247L154.868 158.35C155.075 158.556 155.075 158.866 154.868 159.073L142.362 171.58C142.189 171.752 142.189 172.028 142.362 172.234C145.462 175.335 150.527 175.335 153.663 172.234L168.03 157.867C169.649 156.248 172.268 156.248 173.887 157.867L174.99 158.97C175.162 159.142 175.162 159.418 174.99 159.625L162.931 171.683C162.758 171.856 162.758 172.131 162.931 172.338C166.032 175.439 171.096 175.439 174.231 172.338L188.116 158.453C189.736 156.834 192.354 156.834 193.973 158.453L196.351 160.83C197.281 161.761 197.281 163.311 196.351 164.241L195.972 164.62C195.041 165.55 193.491 165.55 192.561 164.62L189.494 161.554C189.322 161.382 189.047 161.382 188.84 161.554L183.534 166.86C183.362 167.032 183.362 167.308 183.534 167.514L188.323 172.303C191.631 175.611 196.971 175.611 200.244 172.303L204.034 168.513L204 168.41Z" fill="#478BF9"/>
<path d="M164.003 38.2437C94.5445 38.2437 38.2471 94.5411 38.2471 164C38.2471 233.459 94.5445 289.756 164.003 289.756C233.462 289.756 289.76 233.459 289.76 164C289.76 94.5411 233.462 38.2437 164.003 38.2437ZM169.137 77.0731C189.327 78.2446 207.656 86.3066 221.851 98.9167L203.694 117.074C194.219 109.046 182.264 103.844 169.137 102.741V77.0731ZM158.904 77.0731V102.741C145.777 103.809 133.822 109.046 124.347 117.074L106.19 98.9167C120.385 86.3066 138.714 78.2446 158.904 77.0731ZM98.9546 106.152L117.112 124.309C109.084 133.784 103.881 145.739 102.779 158.866H77.1108C78.2822 138.676 86.3445 120.347 98.9546 106.152ZM77.1108 169.099H102.779C103.847 182.226 109.084 194.181 117.112 203.656L98.9546 221.813C86.3445 207.619 78.2822 189.289 77.1108 169.099ZM158.904 250.892C138.714 249.721 120.385 241.659 106.19 229.049L124.347 210.891C133.822 218.919 145.777 224.122 158.904 225.224V250.892ZM111.151 163.965C111.151 134.783 134.821 111.113 164.003 111.113C193.186 111.113 216.855 134.783 216.855 163.965C216.855 193.148 193.186 216.818 164.003 216.818C134.821 216.818 111.151 193.148 111.151 163.965ZM169.137 250.892V225.224C182.264 224.156 194.219 218.919 203.694 210.891L221.851 229.049C207.656 241.659 189.327 249.721 169.137 250.892ZM229.086 221.813L210.929 203.656C218.957 194.181 224.16 182.226 225.262 169.099H250.93C249.759 189.289 241.696 207.619 229.086 221.813ZM225.262 158.866C224.194 145.739 218.957 133.784 210.929 124.309L229.086 106.152C241.696 120.347 249.759 138.676 250.93 158.866H225.262Z" fill="#478BF9"/>
<path d="M98.9546 106.152L117.112 124.309C109.084 133.784 103.881 145.739 102.779 158.866H77.1108C78.2822 138.676 86.3445 120.347 98.9546 106.152Z" fill="#478BF9"/>
<path d="M158.904 77.0731V102.741C145.777 103.809 133.822 109.046 124.347 117.074L106.19 98.9167C120.385 86.3066 138.714 78.2446 158.904 77.0731Z" fill="#478BF9"/>
<path d="M111.151 163.965C111.151 134.783 134.821 111.113 164.003 111.113C193.186 111.113 216.855 134.783 216.855 163.965C216.855 193.148 193.186 216.818 164.003 216.818C134.821 216.818 111.151 193.148 111.151 163.965Z" fill="#478BF9"/>
<path d="M77.1108 169.099H102.779C103.847 182.226 109.084 194.181 117.112 203.656L98.9546 221.813C86.3445 207.619 78.2822 189.289 77.1108 169.099Z" fill="#478BF9"/>
<path d="M158.904 250.892C138.714 249.721 120.385 241.659 106.19 229.049L124.347 210.891C133.822 218.919 145.777 224.122 158.904 225.224V250.892Z" fill="#478BF9"/>
<path d="M169.137 250.892V225.224C182.264 224.156 194.219 218.919 203.694 210.891L221.851 229.049C207.656 241.659 189.327 249.721 169.137 250.892Z" fill="#478BF9"/>
<path d="M229.086 221.813L210.929 203.656C218.957 194.181 224.16 182.226 225.262 169.099H250.93C249.759 189.289 241.696 207.619 229.086 221.813Z" fill="#478BF9"/>
<path d="M225.262 158.866C224.194 145.739 218.957 133.784 210.929 124.309L229.086 106.152C241.696 120.347 249.759 138.676 250.93 158.866H225.262Z" fill="#478BF9"/>
<path d="M169.137 77.0731C189.327 78.2446 207.656 86.3066 221.851 98.9167L203.694 117.074C194.219 109.046 182.264 103.844 169.137 102.741V77.0731Z" fill="#478BF9"/>
<circle cx="164" cy="164" r="107" fill="#1E1231"/>
<path d="M90.4252 171.547L98.2596 179.382C94.7958 183.47 92.5511 188.628 92.0753 194.292H81C81.5055 185.581 84.9842 177.672 90.4252 171.547Z" fill="#478BF9"/>
<path d="M116.292 159V170.075C110.628 170.536 105.47 172.796 101.382 176.26L93.5471 168.425C99.6719 162.984 107.581 159.505 116.292 159Z" fill="#478BF9"/>
<path d="M95.6878 196.493C95.6878 183.901 105.901 173.688 118.493 173.688C131.084 173.688 141.297 183.901 141.297 196.493C141.297 209.084 131.084 219.297 118.493 219.297C105.901 219.297 95.6878 209.084 95.6878 196.493Z" fill="#478BF9"/>
<path d="M81 198.708H92.0753C92.5362 204.372 94.7958 209.53 98.2596 213.618L90.4252 221.453C84.9842 215.328 81.5055 207.419 81 198.708Z" fill="#478BF9"/>
<path d="M116.292 234C107.581 233.495 99.6719 230.016 93.5471 224.575L101.382 216.74C105.47 220.204 110.628 222.449 116.292 222.925V234Z" fill="#478BF9"/>
<path d="M120.708 234V222.925C126.372 222.464 131.53 220.204 135.618 216.74L143.453 224.575C137.328 230.016 129.419 233.495 120.708 234Z" fill="#478BF9"/>
<path d="M146.575 221.453L138.74 213.618C142.204 209.53 144.449 204.372 144.925 198.708H156C155.495 207.419 152.016 215.328 146.575 221.453Z" fill="#478BF9"/>
<path d="M144.925 194.292C144.464 188.628 142.204 183.47 138.74 179.382L146.575 171.547C152.016 177.672 155.495 185.581 156 194.292H144.925Z" fill="#478BF9"/>
<path d="M120.708 159C129.419 159.505 137.328 162.984 143.453 168.425L135.618 176.26C131.53 172.796 126.372 170.551 120.708 170.075V159Z" fill="#478BF9"/>
<circle cx="163.5" cy="113.5" r="37.5" fill="#478BF9"/>
<g clip-path="url(#clip0_404_2099)">
<path d="M186.357 110.959L186.353 110.963L181.855 106.322C179.743 104.142 176.318 104.143 174.207 106.322L171.771 108.837L167.947 112.784L166.644 114.129L160.012 120.975C159.898 121.092 159.898 121.283 160.012 121.4C161.011 122.431 162.32 122.947 163.63 122.947C164.94 122.947 166.249 122.431 167.248 121.4L176.153 112.209C177.191 111.137 178.874 111.137 179.912 112.209L181.431 113.777C182.037 114.403 182.037 115.418 181.431 116.044L181.197 116.286C180.591 116.911 179.607 116.911 179.001 116.285L177.033 114.254C176.92 114.137 176.736 114.137 176.622 114.254L173.209 117.777C173.096 117.894 173.096 118.084 173.209 118.202L176.275 121.366C177.331 122.456 178.715 123.001 180.099 123.001C181.483 123.001 182.868 122.456 183.924 121.366L186.357 118.854C188.47 116.674 188.47 113.139 186.357 110.959L186.357 110.959Z" fill="#1E1231"/>
<path d="M178.067 105.618C179.271 105.618 180.403 106.102 181.254 106.98L185.752 111.621L185.904 111.777C187.511 113.601 187.462 116.434 185.755 118.195L183.322 120.707C182.471 121.585 181.34 122.069 180.135 122.069C178.93 122.069 177.8 121.585 176.948 120.707L174.315 117.988L176.863 115.358L178.398 116.941C178.862 117.421 179.479 117.684 180.135 117.684C180.79 117.684 181.406 117.421 181.87 116.942L182.104 116.7C183.06 115.713 183.061 114.105 182.104 113.117L180.586 111.549C179.913 110.854 179.019 110.473 178.068 110.473C177.118 110.473 176.223 110.855 175.551 111.549L166.646 120.74C165.85 121.562 164.791 122.014 163.666 122.014C162.746 122.014 161.871 121.712 161.147 121.154L167.317 114.785L168.62 113.441L172.444 109.493L174.88 106.979C175.731 106.1 176.862 105.617 178.067 105.617M178.067 104.686C176.682 104.686 175.299 105.23 174.242 106.321L171.806 108.835L167.982 112.782L166.68 114.127L160.047 120.973C159.934 121.09 159.934 121.281 160.047 121.399C161.046 122.429 162.356 122.945 163.666 122.945C164.975 122.945 166.285 122.429 167.284 121.399L176.189 112.207C176.707 111.672 177.388 111.404 178.068 111.404C178.748 111.404 179.428 111.672 179.948 112.207L181.467 113.775C182.073 114.401 182.073 115.416 181.467 116.042L181.232 116.284C180.929 116.597 180.532 116.753 180.135 116.753C179.737 116.753 179.34 116.597 179.036 116.283L177.068 114.252C177.011 114.194 176.936 114.165 176.862 114.165C176.789 114.165 176.714 114.194 176.657 114.252L173.244 117.775C173.13 117.893 173.13 118.082 173.244 118.2L176.31 121.364C177.366 122.454 178.75 122.999 180.134 122.999C181.517 122.999 182.903 122.454 183.959 121.364L186.392 118.852C188.504 116.672 188.504 113.137 186.392 110.957L186.389 110.961L181.891 106.32C180.835 105.229 179.451 104.685 178.067 104.685V104.686Z" fill="#1E1231"/>
<path d="M167.067 111.919L167.982 112.861L171.806 108.914L169.006 106.024C166.894 103.844 163.469 103.844 161.357 106.024L161.363 106.031L158.928 108.545L156.132 105.635C154.02 103.455 150.596 103.455 148.483 105.635L133.569 121.029C133.455 121.147 133.455 121.337 133.569 121.454C134.568 122.486 135.878 123.002 137.189 123.002C138.499 123.002 139.808 122.486 140.807 121.454L150.414 111.538C151.451 110.466 153.134 110.466 154.173 111.538L154.872 112.26C154.999 112.39 154.999 112.602 154.872 112.731L146.848 121.015C146.734 121.132 146.734 121.322 146.848 121.439C147.847 122.471 149.157 122.987 150.467 122.987C151.776 122.987 153.087 122.471 154.086 121.439L163.308 111.92C164.346 110.849 166.029 110.849 167.066 111.92L167.067 111.919Z" fill="#1E1231"/>
</g>
<circle cx="210.5" cy="197.5" r="37.5" fill="#478BF9"/>
<path d="M203.769 221.25C203.006 221.25 202.367 220.989 201.852 220.466C201.335 219.945 201.077 219.299 201.077 218.528V215.806H195.692C194.929 215.806 194.29 215.544 193.773 215.022C193.258 214.501 193 213.855 193 213.083C193 212.312 193.258 211.666 193.773 211.145C194.29 210.622 194.929 210.361 195.692 210.361H198.385V183.139H195.692C194.929 183.139 194.29 182.878 193.773 182.358C193.258 181.835 193 181.188 193 180.417C193 179.645 193.258 178.998 193.773 178.476C194.29 177.955 194.929 177.694 195.692 177.694H201.077V174.972C201.077 174.201 201.335 173.554 201.852 173.031C202.367 172.51 203.006 172.25 203.769 172.25C204.532 172.25 205.172 172.51 205.689 173.031C206.204 173.554 206.462 174.201 206.462 174.972V177.694H211.846V174.972C211.846 174.201 212.105 173.554 212.622 173.031C213.137 172.51 213.776 172.25 214.538 172.25C215.301 172.25 215.941 172.51 216.458 173.031C216.973 173.554 217.231 174.201 217.231 174.972V178.035C219.564 178.67 221.494 179.951 223.019 181.879C224.545 183.808 225.308 186.043 225.308 188.583C225.308 189.899 225.083 191.158 224.635 192.359C224.186 193.562 223.558 194.64 222.75 195.593C224.321 196.546 225.588 197.839 226.552 199.472C227.517 201.106 228 202.92 228 204.917C228 207.911 226.946 210.475 224.837 212.607C222.728 214.739 220.192 215.806 217.231 215.806V218.528C217.231 219.299 216.973 219.945 216.458 220.466C215.941 220.989 215.301 221.25 214.538 221.25C213.776 221.25 213.137 220.989 212.622 220.466C212.105 219.945 211.846 219.299 211.846 218.528V215.806H206.462V218.528C206.462 219.299 206.204 219.945 205.689 220.466C205.172 220.989 204.532 221.25 203.769 221.25ZM203.769 194.028H214.538C216.019 194.028 217.287 193.494 218.343 192.427C219.396 191.362 219.923 190.081 219.923 188.583C219.923 187.086 219.396 185.804 218.343 184.737C217.287 183.672 216.019 183.139 214.538 183.139H203.769V194.028ZM203.769 210.361H217.231C218.712 210.361 219.98 209.828 221.035 208.763C222.089 207.696 222.615 206.414 222.615 204.917C222.615 203.419 222.089 202.137 221.035 201.07C219.98 200.005 218.712 199.472 217.231 199.472H203.769V210.361Z" fill="#1E1231"/>
<defs>
<clipPath id="clip0_404_2099">
<rect width="60.619" height="19" fill="white" transform="translate(133 104)"/>
</clipPath>
</defs>
</svg>
