<svg width="328" height="328" viewBox="0 0 328 328" fill="none" xmlns="http://www.w3.org/2000/svg">
<path d="M164 328C73.5589 328 0 254.407 0 164C0 73.5932 73.5934 0 164 0C254.407 0 328 73.5932 328 164C328 254.407 254.407 328 164 328ZM164 10.9218C79.5884 10.9218 10.9218 79.5881 10.9218 164C10.9218 248.412 79.5884 317.078 164 317.078C248.412 317.078 317.078 248.412 317.078 164C317.078 79.5881 248.412 10.9218 164 10.9218Z" fill="#478BF9"/>
<path d="M270.985 46.9988L220.214 97.7703L230.203 107.759L280.974 56.9875L270.985 46.9988Z" fill="#478BF9"/>
<path d="M96.2343 221.745L45.4629 272.516L55.4515 282.505L106.223 231.734L96.2343 221.745Z" fill="#478BF9"/>
<path d="M231.742 221.794L221.753 231.783L272.524 282.555L282.513 272.566L231.742 221.794Z" fill="#478BF9"/>
<path d="M55.4388 45.4699L45.4502 55.4585L96.1973 106.206L106.186 96.2171L55.4388 45.4699Z" fill="#478BF9"/>
<path d="M204 168.41C207.307 165.103 207.307 159.762 204 156.489L196.971 149.495C193.663 146.188 188.323 146.188 185.05 149.495L181.26 153.285L176.884 148.909C173.577 145.602 168.236 145.602 164.963 148.909L161.174 152.734L156.798 148.324C153.49 145.016 148.15 145.016 144.877 148.324L121.62 171.58C121.448 171.752 121.448 172.028 121.62 172.234C124.721 175.335 129.786 175.335 132.921 172.234L147.909 157.247C149.528 155.628 152.147 155.628 153.766 157.247L154.868 158.35C155.075 158.556 155.075 158.866 154.868 159.073L142.362 171.58C142.189 171.752 142.189 172.028 142.362 172.234C145.462 175.335 150.527 175.335 153.663 172.234L168.03 157.867C169.649 156.248 172.268 156.248 173.887 157.867L174.99 158.97C175.162 159.142 175.162 159.418 174.99 159.625L162.931 171.683C162.758 171.856 162.758 172.131 162.931 172.338C166.032 175.439 171.096 175.439 174.231 172.338L188.116 158.453C189.736 156.834 192.354 156.834 193.973 158.453L196.351 160.83C197.281 161.761 197.281 163.311 196.351 164.241L195.972 164.62C195.041 165.55 193.491 165.55 192.561 164.62L189.494 161.554C189.322 161.382 189.047 161.382 188.84 161.554L183.534 166.86C183.362 167.032 183.362 167.308 183.534 167.514L188.323 172.303C191.631 175.611 196.971 175.611 200.244 172.303L204.034 168.513L204 168.41Z" fill="#478BF9"/>
<path d="M164.003 38.2437C94.5445 38.2437 38.2471 94.5411 38.2471 164C38.2471 233.459 94.5445 289.756 164.003 289.756C233.462 289.756 289.76 233.459 289.76 164C289.76 94.5411 233.462 38.2437 164.003 38.2437ZM169.137 77.0731C189.327 78.2446 207.656 86.3066 221.851 98.9167L203.694 117.074C194.219 109.046 182.264 103.844 169.137 102.741V77.0731ZM158.904 77.0731V102.741C145.777 103.809 133.822 109.046 124.347 117.074L106.19 98.9167C120.385 86.3066 138.714 78.2446 158.904 77.0731ZM98.9546 106.152L117.112 124.309C109.084 133.784 103.881 145.739 102.779 158.866H77.1108C78.2822 138.676 86.3445 120.347 98.9546 106.152ZM77.1108 169.099H102.779C103.847 182.226 109.084 194.181 117.112 203.656L98.9546 221.813C86.3445 207.619 78.2822 189.289 77.1108 169.099ZM158.904 250.892C138.714 249.721 120.385 241.659 106.19 229.049L124.347 210.891C133.822 218.919 145.777 224.122 158.904 225.224V250.892ZM111.151 163.965C111.151 134.783 134.821 111.113 164.003 111.113C193.186 111.113 216.855 134.783 216.855 163.965C216.855 193.148 193.186 216.818 164.003 216.818C134.821 216.818 111.151 193.148 111.151 163.965ZM169.137 250.892V225.224C182.264 224.156 194.219 218.919 203.694 210.891L221.851 229.049C207.656 241.659 189.327 249.721 169.137 250.892ZM229.086 221.813L210.929 203.656C218.957 194.181 224.16 182.226 225.262 169.099H250.93C249.759 189.289 241.696 207.619 229.086 221.813ZM225.262 158.866C224.194 145.739 218.957 133.784 210.929 124.309L229.086 106.152C241.696 120.347 249.759 138.676 250.93 158.866H225.262Z" fill="#478BF9"/>
<path d="M98.9546 106.152L117.112 124.309C109.084 133.784 103.881 145.739 102.779 158.866H77.1108C78.2822 138.676 86.3445 120.347 98.9546 106.152Z" fill="#478BF9"/>
<path d="M158.904 77.0731V102.741C145.777 103.809 133.822 109.046 124.347 117.074L106.19 98.9167C120.385 86.3066 138.714 78.2446 158.904 77.0731Z" fill="#478BF9"/>
<path d="M111.151 163.965C111.151 134.783 134.821 111.113 164.003 111.113C193.186 111.113 216.855 134.783 216.855 163.965C216.855 193.148 193.186 216.818 164.003 216.818C134.821 216.818 111.151 193.148 111.151 163.965Z" fill="#478BF9"/>
<path d="M77.1108 169.099H102.779C103.847 182.226 109.084 194.181 117.112 203.656L98.9546 221.813C86.3445 207.619 78.2822 189.289 77.1108 169.099Z" fill="#478BF9"/>
<path d="M158.904 250.892C138.714 249.721 120.385 241.659 106.19 229.049L124.347 210.891C133.822 218.919 145.777 224.122 158.904 225.224V250.892Z" fill="#478BF9"/>
<path d="M169.137 250.892V225.224C182.264 224.156 194.219 218.919 203.694 210.891L221.851 229.049C207.656 241.659 189.327 249.721 169.137 250.892Z" fill="#478BF9"/>
<path d="M229.086 221.813L210.929 203.656C218.957 194.181 224.16 182.226 225.262 169.099H250.93C249.759 189.289 241.696 207.619 229.086 221.813Z" fill="#478BF9"/>
<path d="M225.262 158.866C224.194 145.739 218.957 133.784 210.929 124.309L229.086 106.152C241.696 120.347 249.759 138.676 250.93 158.866H225.262Z" fill="#478BF9"/>
<path d="M169.137 77.0731C189.327 78.2446 207.656 86.3066 221.851 98.9167L203.694 117.074C194.219 109.046 182.264 103.844 169.137 102.741V77.0731Z" fill="#478BF9"/>
<circle cx="164" cy="164" r="107" fill="#1E1231"/>
<g clip-path="url(#clip0_357_8540)">
<path d="M230.517 158.501L230.507 158.511L217.804 146.005C211.838 140.129 202.166 140.132 196.204 146.005L189.324 152.781L178.523 163.418L174.845 167.04L156.113 185.49C155.792 185.806 155.792 186.32 156.113 186.636C158.936 189.413 162.634 190.803 166.333 190.803C170.031 190.803 173.73 189.413 176.552 186.636L201.7 161.867C204.632 158.98 209.385 158.98 212.317 161.867L216.606 166.092C218.318 167.78 218.318 170.515 216.606 172.201L215.944 172.853C214.233 174.539 211.456 174.539 209.744 172.851L204.186 167.379C203.865 167.063 203.346 167.063 203.025 167.379L193.386 176.872C193.065 177.188 193.065 177.7 193.386 178.016L202.044 186.543C205.027 189.481 208.937 190.949 212.844 190.949C216.752 190.949 220.664 189.481 223.647 186.543L230.519 179.775C236.485 173.899 236.485 164.374 230.519 158.498L230.517 158.501Z" fill="#478BF9"/>
<path d="M207.108 144.106C210.506 144.106 213.702 145.41 216.107 147.776L228.81 160.282L229.24 160.703C233.779 165.618 233.639 173.252 228.82 177.999L221.948 184.767C219.543 187.133 216.349 188.437 212.946 188.437C209.543 188.437 206.351 187.133 203.947 184.767L196.509 177.442L203.707 170.352L208.043 174.619C209.352 175.911 211.094 176.621 212.946 176.621C214.798 176.621 216.537 175.911 217.847 174.622L218.509 173.97C221.209 171.31 221.211 166.978 218.509 164.313L214.219 160.089C212.319 158.217 209.795 157.189 207.11 157.189C204.426 157.189 201.899 158.22 200.001 160.089L174.853 184.857C172.603 187.07 169.613 188.289 166.434 188.289C163.836 188.289 161.365 187.477 159.322 185.971L176.748 168.809L180.426 165.187L191.226 154.55L198.106 147.773C200.51 145.405 203.705 144.103 207.105 144.103M207.105 141.594C203.195 141.594 199.288 143.062 196.305 146L189.425 152.776L178.625 163.413L174.947 167.035L156.215 185.485C155.894 185.801 155.894 186.315 156.215 186.631C159.037 189.408 162.736 190.798 166.434 190.798C170.133 190.798 173.831 189.408 176.653 186.631L201.802 161.862C203.267 160.42 205.19 159.697 207.11 159.697C209.031 159.697 210.951 160.42 212.419 161.862L216.708 166.087C218.42 167.776 218.42 170.51 216.708 172.196L216.046 172.848C215.19 173.691 214.069 174.113 212.946 174.113C211.823 174.113 210.702 173.691 209.843 172.846L204.285 167.374C204.125 167.216 203.914 167.138 203.705 167.138C203.496 167.138 203.284 167.216 203.124 167.374L193.485 176.867C193.164 177.183 193.164 177.695 193.485 178.011L202.143 186.538C205.126 189.476 209.036 190.944 212.943 190.944C216.851 190.944 220.763 189.476 223.746 186.538L230.618 179.77C236.584 173.894 236.584 164.369 230.618 158.493L230.608 158.503L217.905 145.997C214.922 143.06 211.015 141.592 207.105 141.592V141.594Z" fill="#478BF9"/>
<path d="M176.04 161.087L178.623 163.626L189.423 152.989L181.517 145.202C175.551 139.326 165.879 139.326 159.914 145.202L159.932 145.219L153.054 151.995L145.158 144.153C139.193 138.278 129.521 138.278 123.555 144.153L81.435 185.635C81.1141 185.954 81.1141 186.465 81.435 186.782C84.2573 189.561 87.9559 190.951 91.6569 190.951C95.358 190.951 99.054 189.561 101.876 186.782L129.009 160.059C131.938 157.171 136.691 157.171 139.623 160.059L141.6 162.005C141.956 162.357 141.956 162.926 141.6 163.275L118.937 185.597C118.616 185.914 118.616 186.425 118.937 186.741C121.76 189.521 125.458 190.911 129.157 190.911C132.855 190.911 136.556 189.521 139.379 186.741L165.424 161.09C168.355 158.202 173.108 158.202 176.038 161.09L176.04 161.087Z" fill="#478BF9"/>
</g>
<defs>
<clipPath id="clip0_357_8540">
<rect width="171.2" height="51.2" fill="white" transform="translate(79.8264 139.747)"/>
</clipPath>
</defs>
</svg>
