<svg width="100" height="100" viewBox="0 0 100 100" fill="none" xmlns="http://www.w3.org/2000/svg">
<path d="M49.7325 99.1214C37.0339 99.1214 24.3458 94.2919 14.6762 84.6223C-4.65264 65.2934 -4.65264 33.8489 14.6762 14.5201C24.044 5.15229 36.4927 0 49.7325 0C62.9722 0 75.421 5.15229 84.7888 14.5201C104.118 33.8489 104.118 65.2934 84.7888 84.6223C75.1296 94.2815 62.431 99.1214 49.7325 99.1214ZM17.2784 82.0201C35.1708 99.9126 64.2838 99.9126 82.1762 82.0201C100.069 64.1277 100.069 35.0147 82.1762 17.1222C73.5058 8.45183 61.9835 3.6847 49.7221 3.6847C37.4607 3.6847 25.9383 8.46223 17.2679 17.1222C-0.624513 35.0147 -0.624513 64.1277 17.2679 82.0201H17.2784Z" fill="#9DADF2"/>
<path d="M49.0769 68.1142C49.2538 68.541 49.6701 68.7907 50.1073 68.7907C50.253 68.7907 50.3987 68.7595 50.5445 68.7074C54.0418 67.2398 57.2268 64.9707 59.7457 62.1395C60.1517 61.6816 60.11 60.9739 59.652 60.5679C59.194 60.162 58.4862 60.2036 58.0803 60.6616C55.78 63.2533 52.876 65.3247 49.6805 66.657C49.1185 66.8964 48.8478 67.5521 49.0872 68.1142H49.0769Z" fill="#9DADF2"/>
<path d="M68.6225 32.4336L50.1368 25.0434C49.8661 24.9393 49.5747 24.9393 49.3041 25.0434L30.8183 32.4336C30.3916 32.6001 30.121 33.006 30.121 33.464V46.7038C30.1418 58.9235 37.865 69.9671 49.3353 74.1722C49.4602 74.2138 49.5851 74.2347 49.7204 74.2347C49.8558 74.2347 49.9807 74.2138 50.1056 74.1722C61.5759 69.9567 69.299 58.9235 69.3199 46.7038V33.464C69.3199 33.006 69.0493 32.6001 68.6225 32.4336ZM67.0925 46.7038C67.0716 57.8202 60.0978 67.9478 49.7308 71.9343C39.3638 67.9478 32.3796 57.8202 32.3588 46.7038V34.2238L49.7308 27.2813L67.0925 34.2238V46.7038Z" fill="#9DADF2"/>
<path d="M42.0083 34.1716C41.7376 34.0571 41.4358 34.0571 41.1548 34.1716L36.7519 35.9307C36.3252 36.0972 36.0546 36.5032 36.0546 36.9611V41.6554C36.0546 42.2695 36.5542 42.7691 37.1683 42.7691C37.7824 42.7691 38.282 42.2695 38.282 41.6554V37.7209L41.9771 36.243C42.2581 36.1285 42.4663 35.9203 42.5912 35.6392C42.7056 35.3686 42.7056 35.0668 42.5912 34.7858C42.4767 34.5047 42.2685 34.2965 41.9979 34.1716H42.0083Z" fill="#9DADF2"/>
<path d="M77.8876 21.4211C70.3726 13.8957 60.3698 9.76343 49.7322 9.76343C39.0946 9.76343 29.1023 13.9061 21.5768 21.4211C6.05756 36.9404 6.05756 62.2022 21.5768 77.7319C29.3417 85.4967 39.5317 89.3687 49.7322 89.3687C59.9326 89.3687 70.1227 85.4863 77.8876 77.7319C93.4069 62.2126 93.4069 36.9508 77.8876 21.4211ZM72.3814 46.7037C72.4126 60.8282 63.3883 73.1833 49.9299 77.4612C49.805 77.5029 49.6697 77.5029 49.5344 77.4612C36.076 73.1833 27.0518 60.8282 27.083 46.7037V31.0803C27.083 30.8201 27.2391 30.5807 27.4889 30.4766L49.4928 21.6813C49.5657 21.6501 49.6489 21.6397 49.7322 21.6397C49.8154 21.6397 49.8988 21.6501 49.9716 21.6813L71.9755 30.4871C72.2253 30.5807 72.3814 30.8201 72.3814 31.0907V46.7141V46.7037Z" fill="#9DADF2"/>
</svg>
